<?xml version="1.0" encoding="utf-8"?>
<!-- Generator: Adobe Illustrator 19.1.0, SVG Export Plug-In . SVG Version: 6.00 Build 0)  -->
<!DOCTYPE svg PUBLIC "-//W3C//DTD SVG 1.1//EN" "http://www.w3.org/Graphics/SVG/1.1/DTD/svg11.dtd">




<svg version="1.1" id="Layer_1" xmlns="http://www.w3.org/2000/svg" xmlns:xlink="http://www.w3.org/1999/xlink" x="0px" y="0px"
	 width="18px" height="23px" viewBox="160 161 28 35"  enable-background="new 0 0 443.06448 313.2803"
	 xml:space="preserve">
<g>
	<path fill="#454545" d="M183.1895,178.21091l-3.6348-2.42961l-2.29391-4.64259c-0.50879-1.0313-0.959-1.62891-1.92679-1.8438
		c-0.75-0.166-1.49609,0.01959-2.0811,0.43559c-0.0166,0.0117-0.03511,0.0215-0.0507,0.0332l-5.4366,4.30659
		c-0.22069,0.1777-0.375,0.4277-0.43359,0.70511l-1.04291,5.01759c-0.1348,0.6562,0.28711,1.2988,0.9453,1.4355
		c0.08301,0.01759,0.166,0.02541,0.2471,0.02541c0.56441,0,1.06931-0.3945,1.18842-0.96681l0.95219-4.58589l1.94139-1.53711
		c0,0-1.2549,5.66011-1.2549,5.664l-1.4902,6.71881l-3.45509,5.74609c-0.49319,0.8222-0.22661,1.8867,0.5937,2.3808
		c0.28029,0.168,0.5889,0.25,0.89259,0.25c0.5869,0,1.16411-0.3008,1.48831-0.8418l3.60249-5.9882
		c0.0957-0.1602,0.16609-0.336,0.2061-0.51759l1.0146-4.58011l3.84769,4.44341l1.20021,6.08391
		c0.1631,0.82619,0.8896,1.40039,1.7012,1.40039c0.1113,0,0.22459-0.0117,0.33879-0.0332c0.9395-0.1855,1.5508-1.0976,1.3653-2.039
		l-1.28809-6.53709c-0.0576-0.295-0.19241-0.5704-0.3916-0.7989l-4.4209-5.10739l1.1279-5.03911l0.87889,1.77931
		c0.0957,0.19339,0.2373,0.3555,0.4151,0.47459l3.9062,2.6075c0.5576,0.373,1.31349,0.2226,1.68359-0.336
		C183.8994,179.33591,183.74809,178.58009,183.1895,178.21091z"/>
	<circle fill="#454545" cx="176.1221" cy="165.64059" r="2.6035"/>
</g>

</svg>



